# xmcd
#
# Track frame offsets: 
#        220
#        26625
#        43572
#        59217
#        81737
#        97720
#        116587
#        143302
#        159205
#        181225
#
# Disc length: 2737 seconds
#
# Revision: 2
# Processed by: cddbd v1.5.1PL0 Copyright (c) Steve Scherf et al.
# Submitted via: ExactAudioCopy v0.95a5
#
DISCID=7a0aaf0a
DTITLE=Champion Jack Dupree - One Last Time
DYEAR=1900
DGENRE=Blues
TTITLE0=Bad Blood
TTITLE1=She's Jail Bait
TTITLE2=Somebody Done Changed The Lock On My Door
TTITLE3=Give Me Flowers While I'm Livin'
TTITLE4=Hey Mary
TTITLE5=Drinkin' Wine Spo-Dee-O-Dee
TTITLE6=You Can Make It
TTITLE7=Big Leg Emma
TTITLE8=Early In The Morning
TTITLE9=School Days
EXTD=
EXTT0=
EXTT1=
EXTT2=
EXTT3=
EXTT4=
EXTT5=
EXTT6=
EXTT7=
EXTT8=
EXTT9=
PLAYORDER=
